<svg width="213" height="84" viewBox="0 0 213 84" fill="none" xmlns="http://www.w3.org/2000/svg">
<path d="M11.52 9.96C15.6533 9.96 18.8267 10.6933 21.04 12.16C23.2533 13.6 24.36 15.9733 24.36 19.28C24.36 22.6133 23.24 25.0267 21 26.52C18.76 27.9867 15.56 28.72 11.4 28.72H9.44V38H3.2V10.68C4.56 10.4133 6 10.2267 7.52 10.12C9.04 10.0133 10.3733 9.96 11.52 9.96ZM11.92 15.28C11.4667 15.28 11.0133 15.2933 10.56 15.32C10.1333 15.3467 9.76 15.3733 9.44 15.4V23.4H11.4C13.56 23.4 15.1867 23.1067 16.28 22.52C17.3733 21.9333 17.92 20.84 17.92 19.24C17.92 18.4667 17.7733 17.8267 17.48 17.32C17.2133 16.8133 16.8133 16.4133 16.28 16.12C15.7733 15.8 15.1467 15.5867 14.4 15.48C13.6533 15.3467 12.8267 15.28 11.92 15.28ZM26.9563 27.64C26.9563 25.7733 27.2363 24.1467 27.7962 22.76C28.3829 21.3467 29.1429 20.1733 30.0763 19.24C31.0096 18.3067 32.0763 17.6 33.2763 17.12C34.5029 16.64 35.7563 16.4 37.0363 16.4C40.0229 16.4 42.3829 17.32 44.1163 19.16C45.8496 20.9733 46.7163 23.6533 46.7163 27.2C46.7163 27.5467 46.7029 27.9333 46.6763 28.36C46.6496 28.76 46.6229 29.12 46.5963 29.44H33.0763C33.2096 30.6667 33.7829 31.64 34.7963 32.36C35.8096 33.08 37.1696 33.44 38.8763 33.44C39.9696 33.44 41.0363 33.3467 42.0763 33.16C43.1429 32.9467 44.0096 32.6933 44.6763 32.4L45.4763 37.24C45.1563 37.4 44.7296 37.56 44.1963 37.72C43.6629 37.88 43.0629 38.0133 42.3963 38.12C41.7563 38.2533 41.0629 38.36 40.3163 38.44C39.5696 38.52 38.8229 38.56 38.0763 38.56C36.1829 38.56 34.5296 38.28 33.1163 37.72C31.7296 37.16 30.5696 36.4 29.6363 35.44C28.7296 34.4533 28.0496 33.2933 27.5963 31.96C27.1696 30.6267 26.9563 29.1867 26.9563 27.64ZM40.9563 25.36C40.9296 24.8533 40.8363 24.36 40.6763 23.88C40.5429 23.4 40.3163 22.9733 39.9963 22.6C39.7029 22.2267 39.3163 21.92 38.8363 21.68C38.3829 21.44 37.8096 21.32 37.1163 21.32C36.4496 21.32 35.8763 21.44 35.3963 21.68C34.9163 21.8933 34.5163 22.1867 34.1963 22.56C33.8763 22.9333 33.6229 23.3733 33.4363 23.88C33.2763 24.36 33.1563 24.8533 33.0763 25.36H40.9563ZM70.9956 27.44C70.9956 29.0933 70.7556 30.6133 70.2756 32C69.7956 33.36 69.1023 34.5333 68.1956 35.52C67.289 36.48 66.1956 37.2267 64.9156 37.76C63.6623 38.2933 62.249 38.56 60.6756 38.56C59.129 38.56 57.7156 38.2933 56.4356 37.76C55.1823 37.2267 54.1023 36.48 53.1956 35.52C52.289 34.5333 51.5823 33.36 51.0756 32C50.569 30.6133 50.3156 29.0933 50.3156 27.44C50.3156 25.7867 50.569 24.28 51.0756 22.92C51.609 21.56 52.329 20.4 53.2356 19.44C54.169 18.48 55.2623 17.7333 56.5156 17.2C57.7956 16.6667 59.1823 16.4 60.6756 16.4C62.1956 16.4 63.5823 16.6667 64.8356 17.2C66.1156 17.7333 67.209 18.48 68.1156 19.44C69.0223 20.4 69.729 21.56 70.2356 22.92C70.7423 24.28 70.9956 25.7867 70.9956 27.44ZM64.9156 27.44C64.9156 25.6 64.5423 24.16 63.7956 23.12C63.0756 22.0533 62.0356 21.52 60.6756 21.52C59.3156 21.52 58.2623 22.0533 57.5156 23.12C56.769 24.16 56.3956 25.6 56.3956 27.44C56.3956 29.28 56.769 30.7467 57.5156 31.84C58.2623 32.9067 59.3156 33.44 60.6756 33.44C62.0356 33.44 63.0756 32.9067 63.7956 31.84C64.5423 30.7467 64.9156 29.28 64.9156 27.44ZM89.0925 27.64C89.0925 25.8 88.6792 24.3333 87.8525 23.24C87.0258 22.12 85.7992 21.56 84.1725 21.56C83.6392 21.56 83.1458 21.5867 82.6925 21.64C82.2392 21.6667 81.8658 21.7067 81.5725 21.76V32.52C81.9458 32.76 82.4258 32.96 83.0125 33.12C83.6258 33.28 84.2392 33.36 84.8525 33.36C87.6792 33.36 89.0925 31.4533 89.0925 27.64ZM95.1725 27.48C95.1725 29.1067 94.9725 30.5867 94.5725 31.92C94.1725 33.2533 93.5858 34.4 92.8125 35.36C92.0392 36.32 91.0792 37.0667 89.9325 37.6C88.7858 38.1333 87.4658 38.4 85.9725 38.4C85.1458 38.4 84.3725 38.32 83.6525 38.16C82.9325 38 82.2392 37.7733 81.5725 37.48V45.4H75.6125V17.68C76.1458 17.52 76.7592 17.3733 77.4525 17.24C78.1458 17.08 78.8658 16.9467 79.6125 16.84C80.3858 16.7333 81.1592 16.6533 81.9325 16.6C82.7325 16.52 83.4925 16.48 84.2125 16.48C85.9458 16.48 87.4925 16.7467 88.8525 17.28C90.2125 17.7867 91.3592 18.52 92.2925 19.48C93.2258 20.4133 93.9325 21.56 94.4125 22.92C94.9192 24.28 95.1725 25.8 95.1725 27.48ZM108.153 38.4C106.42 38.3733 105.006 38.1867 103.913 37.84C102.846 37.4933 101.993 37.0133 101.353 36.4C100.74 35.76 100.313 35 100.073 34.12C99.8598 33.2133 99.7531 32.2 99.7531 31.08V7.92L105.713 6.96V29.88C105.713 30.4133 105.753 30.8933 105.833 31.32C105.913 31.7467 106.06 32.1067 106.273 32.4C106.513 32.6933 106.846 32.9333 107.273 33.12C107.7 33.3067 108.273 33.4267 108.993 33.48L108.153 38.4ZM111.409 27.64C111.409 25.7733 111.689 24.1467 112.249 22.76C112.836 21.3467 113.596 20.1733 114.529 19.24C115.463 18.3067 116.529 17.6 117.729 17.12C118.956 16.64 120.209 16.4 121.489 16.4C124.476 16.4 126.836 17.32 128.569 19.16C130.303 20.9733 131.169 23.6533 131.169 27.2C131.169 27.5467 131.156 27.9333 131.129 28.36C131.103 28.76 131.076 29.12 131.049 29.44H117.529C117.663 30.6667 118.236 31.64 119.249 32.36C120.263 33.08 121.623 33.44 123.329 33.44C124.423 33.44 125.489 33.3467 126.529 33.16C127.596 32.9467 128.463 32.6933 129.129 32.4L129.929 37.24C129.609 37.4 129.183 37.56 128.649 37.72C128.116 37.88 127.516 38.0133 126.849 38.12C126.209 38.2533 125.516 38.36 124.769 38.44C124.023 38.52 123.276 38.56 122.529 38.56C120.636 38.56 118.983 38.28 117.569 37.72C116.183 37.16 115.023 36.4 114.089 35.44C113.183 34.4533 112.503 33.2933 112.049 31.96C111.623 30.6267 111.409 29.1867 111.409 27.64ZM125.409 25.36C125.383 24.8533 125.289 24.36 125.129 23.88C124.996 23.4 124.769 22.9733 124.449 22.6C124.156 22.2267 123.769 21.92 123.289 21.68C122.836 21.44 122.263 21.32 121.569 21.32C120.903 21.32 120.329 21.44 119.849 21.68C119.369 21.8933 118.969 22.1867 118.649 22.56C118.329 22.9333 118.076 23.3733 117.889 23.88C117.729 24.36 117.609 24.8533 117.529 25.36H125.409ZM144.538 23.56H151.218V16.16H156.658V23.56H163.338V28.56H156.658V35.96H151.218V28.56H144.538V23.56Z" fill="white"/>
<path d="M63.32 47.96C67.48 47.96 70.6667 48.7067 72.88 50.2C75.0933 51.6667 76.2 53.96 76.2 57.08C76.2 59.0267 75.7467 60.6133 74.84 61.84C73.96 63.04 72.68 63.9867 71 64.68C71.56 65.3733 72.1467 66.1733 72.76 67.08C73.3733 67.96 73.9733 68.8933 74.56 69.88C75.1733 70.84 75.76 71.8533 76.32 72.92C76.88 73.96 77.4 74.9867 77.88 76H70.88C70.3733 75.0933 69.8533 74.1733 69.32 73.24C68.8133 72.3067 68.28 71.4 67.72 70.52C67.1867 69.64 66.6533 68.8133 66.12 68.04C65.5867 67.24 65.0533 66.52 64.52 65.88H61.44V76H55.2V48.68C56.56 48.4133 57.96 48.2267 59.4 48.12C60.8667 48.0133 62.1733 47.96 63.32 47.96ZM63.68 53.28C63.2267 53.28 62.8133 53.2933 62.44 53.32C62.0933 53.3467 61.76 53.3733 61.44 53.4V60.92H63.2C65.5467 60.92 67.2267 60.6267 68.24 60.04C69.2533 59.4533 69.76 58.4533 69.76 57.04C69.76 55.68 69.24 54.72 68.2 54.16C67.1867 53.5733 65.68 53.28 63.68 53.28ZM79.4641 65.64C79.4641 63.7733 79.7441 62.1467 80.3041 60.76C80.8907 59.3467 81.6507 58.1733 82.5841 57.24C83.5174 56.3067 84.5841 55.6 85.7841 55.12C87.0107 54.64 88.2641 54.4 89.5441 54.4C92.5307 54.4 94.8907 55.32 96.6241 57.16C98.3574 58.9733 99.2241 61.6533 99.2241 65.2C99.2241 65.5467 99.2107 65.9333 99.1841 66.36C99.1574 66.76 99.1307 67.12 99.1041 67.44H85.5841C85.7174 68.6667 86.2907 69.64 87.3041 70.36C88.3174 71.08 89.6774 71.44 91.3841 71.44C92.4774 71.44 93.5441 71.3467 94.5841 71.16C95.6507 70.9467 96.5174 70.6933 97.1841 70.4L97.9841 75.24C97.6641 75.4 97.2374 75.56 96.7041 75.72C96.1707 75.88 95.5707 76.0133 94.9041 76.12C94.2641 76.2533 93.5707 76.36 92.8241 76.44C92.0774 76.52 91.3307 76.56 90.5841 76.56C88.6907 76.56 87.0374 76.28 85.6241 75.72C84.2374 75.16 83.0774 74.4 82.1441 73.44C81.2374 72.4533 80.5574 71.2933 80.1041 69.96C79.6774 68.6267 79.4641 67.1867 79.4641 65.64ZM93.4641 63.36C93.4374 62.8533 93.3441 62.36 93.1841 61.88C93.0507 61.4 92.8241 60.9733 92.5041 60.6C92.2107 60.2267 91.8241 59.92 91.3441 59.68C90.8907 59.44 90.3174 59.32 89.6241 59.32C88.9574 59.32 88.3841 59.44 87.9041 59.68C87.4241 59.8933 87.0241 60.1867 86.7041 60.56C86.3841 60.9333 86.1307 61.3733 85.9441 61.88C85.7841 62.36 85.6641 62.8533 85.5841 63.36H93.4641ZM108.903 64.8C108.903 68.1333 110.25 69.8 112.943 69.8C113.557 69.8 114.13 69.72 114.663 69.56C115.197 69.4 115.65 69.2133 116.023 69V59.48C115.73 59.4267 115.383 59.3867 114.983 59.36C114.583 59.3067 114.117 59.28 113.583 59.28C112.01 59.28 110.837 59.8 110.063 60.84C109.29 61.88 108.903 63.2 108.903 64.8ZM121.983 73.36C121.983 76.8 121.103 79.3467 119.343 81C117.61 82.68 114.917 83.52 111.263 83.52C109.983 83.52 108.703 83.4 107.423 83.16C106.143 82.9467 104.957 82.6533 103.863 82.28L104.903 77.28C105.837 77.6533 106.81 77.9467 107.823 78.16C108.863 78.3733 110.037 78.48 111.343 78.48C113.05 78.48 114.25 78.1067 114.943 77.36C115.663 76.6133 116.023 75.6533 116.023 74.48V73.72C115.383 74.0133 114.717 74.24 114.023 74.4C113.357 74.5333 112.623 74.6 111.823 74.6C108.917 74.6 106.69 73.7467 105.143 72.04C103.597 70.3067 102.823 67.8933 102.823 64.8C102.823 63.2533 103.063 61.8533 103.543 60.6C104.023 59.32 104.717 58.2267 105.623 57.32C106.557 56.4133 107.69 55.72 109.023 55.24C110.357 54.7333 111.863 54.48 113.543 54.48C114.263 54.48 114.997 54.52 115.743 54.6C116.517 54.6533 117.277 54.7333 118.023 54.84C118.77 54.9467 119.477 55.08 120.143 55.24C120.837 55.3733 121.45 55.52 121.983 55.68V73.36ZM133.533 76H127.573V54.96H133.533V76ZM134.093 48.88C134.093 49.9733 133.733 50.84 133.013 51.48C132.32 52.0933 131.493 52.4 130.533 52.4C129.573 52.4 128.733 52.0933 128.013 51.48C127.32 50.84 126.973 49.9733 126.973 48.88C126.973 47.7867 127.32 46.9333 128.013 46.32C128.733 45.68 129.573 45.36 130.533 45.36C131.493 45.36 132.32 45.68 133.013 46.32C133.733 46.9333 134.093 47.7867 134.093 48.88ZM145.176 71.72C146.269 71.72 147.043 71.6133 147.496 71.4C147.949 71.1867 148.176 70.7733 148.176 70.16C148.176 69.68 147.883 69.2667 147.296 68.92C146.709 68.5467 145.816 68.1333 144.616 67.68C143.683 67.3333 142.829 66.9733 142.056 66.6C141.309 66.2267 140.669 65.7867 140.136 65.28C139.603 64.7467 139.189 64.12 138.896 63.4C138.603 62.68 138.456 61.8133 138.456 60.8C138.456 58.8267 139.189 57.2667 140.656 56.12C142.123 54.9733 144.136 54.4 146.696 54.4C147.976 54.4 149.203 54.52 150.376 54.76C151.549 54.9733 152.483 55.2133 153.176 55.48L152.136 60.12C151.443 59.88 150.683 59.6667 149.856 59.48C149.056 59.2933 148.149 59.2 147.136 59.2C145.269 59.2 144.336 59.72 144.336 60.76C144.336 61 144.376 61.2133 144.456 61.4C144.536 61.5867 144.696 61.7733 144.936 61.96C145.176 62.12 145.496 62.3067 145.896 62.52C146.323 62.7067 146.856 62.92 147.496 63.16C148.803 63.64 149.883 64.12 150.736 64.6C151.589 65.0533 152.256 65.56 152.736 66.12C153.243 66.6533 153.589 67.2533 153.776 67.92C153.989 68.5867 154.096 69.36 154.096 70.24C154.096 72.32 153.309 73.8933 151.736 74.96C150.189 76.0267 147.989 76.56 145.136 76.56C143.269 76.56 141.709 76.4 140.456 76.08C139.229 75.76 138.376 75.4933 137.896 75.28L138.896 70.44C139.909 70.84 140.949 71.16 142.016 71.4C143.083 71.6133 144.136 71.72 145.176 71.72ZM158.35 49.72L164.31 48.76V54.96H171.47V59.92H164.31V67.32C164.31 68.5733 164.523 69.5733 164.95 70.32C165.403 71.0667 166.297 71.44 167.63 71.44C168.27 71.44 168.923 71.3867 169.59 71.28C170.283 71.1467 170.91 70.9733 171.47 70.76L172.31 75.4C171.59 75.6933 170.79 75.9467 169.91 76.16C169.03 76.3733 167.95 76.48 166.67 76.48C165.043 76.48 163.697 76.2667 162.63 75.84C161.563 75.3867 160.71 74.7733 160.07 74C159.43 73.2 158.977 72.24 158.71 71.12C158.47 70 158.35 68.76 158.35 67.4V49.72ZM174.542 65.64C174.542 63.7733 174.822 62.1467 175.382 60.76C175.969 59.3467 176.729 58.1733 177.662 57.24C178.596 56.3067 179.662 55.6 180.862 55.12C182.089 54.64 183.342 54.4 184.622 54.4C187.609 54.4 189.969 55.32 191.702 57.16C193.436 58.9733 194.302 61.6533 194.302 65.2C194.302 65.5467 194.289 65.9333 194.262 66.36C194.236 66.76 194.209 67.12 194.182 67.44H180.662C180.796 68.6667 181.369 69.64 182.382 70.36C183.396 71.08 184.756 71.44 186.462 71.44C187.556 71.44 188.622 71.3467 189.662 71.16C190.729 70.9467 191.596 70.6933 192.262 70.4L193.062 75.24C192.742 75.4 192.316 75.56 191.782 75.72C191.249 75.88 190.649 76.0133 189.982 76.12C189.342 76.2533 188.649 76.36 187.902 76.44C187.156 76.52 186.409 76.56 185.662 76.56C183.769 76.56 182.116 76.28 180.702 75.72C179.316 75.16 178.156 74.4 177.222 73.44C176.316 72.4533 175.636 71.2933 175.182 69.96C174.756 68.6267 174.542 67.1867 174.542 65.64ZM188.542 63.36C188.516 62.8533 188.422 62.36 188.262 61.88C188.129 61.4 187.902 60.9733 187.582 60.6C187.289 60.2267 186.902 59.92 186.422 59.68C185.969 59.44 185.396 59.32 184.702 59.32C184.036 59.32 183.462 59.44 182.982 59.68C182.502 59.8933 182.102 60.1867 181.782 60.56C181.462 60.9333 181.209 61.3733 181.022 61.88C180.862 62.36 180.742 62.8533 180.662 63.36H188.542ZM211.582 60.24C211.048 60.1067 210.422 59.9733 209.702 59.84C208.982 59.68 208.208 59.6 207.382 59.6C207.008 59.6 206.555 59.64 206.022 59.72C205.515 59.7733 205.128 59.84 204.862 59.92V76H198.902V56.08C199.968 55.7067 201.222 55.36 202.662 55.04C204.128 54.6933 205.755 54.52 207.542 54.52C207.862 54.52 208.248 54.5467 208.702 54.6C209.155 54.6267 209.608 54.68 210.062 54.76C210.515 54.8133 210.968 54.8933 211.422 55C211.875 55.08 212.262 55.1867 212.582 55.32L211.582 60.24Z" fill="white"/>
</svg>
